<svg width="128px" height="128px" viewBox="0 0 128 128" version="1.1" xmlns="http://www.w3.org/2000/svg" xmlns:xlink="http://www.w3.org/1999/xlink">
    <g id="Symbols" stroke="none" stroke-width="1" fill="none" fill-rule="evenodd">
        <g id="ic_automation_white_128px-copy" fill="#FFFFFF" fill-rule="nonzero">
            <g id="Group-8">
                <g id="Group-4" transform="translate(21.000000, 21.000000)">
                    <g id="Group-3" transform="translate(9.000000, 18.000000)">
                        <path d="M42,9.25399751 C41.0239673,8.93869459 40.0226986,8.67953219 39,8.48031657 L39,3 L29,3 L29,8.48031657 C27.9773014,8.67953219 26.9760327,8.93869459 26,9.25399751 L26,1 C26,0.44771525 26.4477153,1.01453063e-16 27,0 L41,0 C41.5522847,-1.01453063e-16 42,0.44771525 42,1 L42,9.25399751 Z M42,58.7460025 L42,67 C42,67.5522847 41.5522847,68 41,68 L27,68 C26.4477153,68 26,67.5522847 26,67 L26,58.7460025 C26.9760327,59.0613054 27.9773014,59.3204678 29,59.5196834 L29,65 L39,65 L39,59.5196834 C40.0226986,59.3204678 41.0239673,59.0613054 42,58.7460025 Z" id="Combined-Shape"></path>
                        <path d="M58.7460025,42 C59.0613054,41.0239673 59.3204678,40.0226986 59.5196834,39 L65,39 L65,29 L59.5196834,29 C59.3204678,27.9773014 59.0613054,26.9760327 58.7460025,26 L67,26 C67.5522847,26 68,26.4477153 68,27 L68,41 C68,41.5522847 67.5522847,42 67,42 L58.7460025,42 Z M9.25399751,42 L1,42 C0.44771525,42 0,41.5522847 0,41 L0,27 C0,26.4477153 0.44771525,26 1,26 L9.25399751,26 C8.93869459,26.9760327 8.67953219,27.9773014 8.48031657,29 L3,29 L3,39 L8.48031657,39 C8.67953219,40.0226986 8.93869459,41.0239673 9.25399751,42 Z" id="Combined-Shape"></path>
                        <path d="M57.1537973,22.1599112 C56.6810481,21.2372818 56.1547724,20.3466118 55.5790686,19.4919992 L59.4558441,15.6152237 L52.3847763,8.54415588 L48.5080008,12.4209314 C47.6533882,11.8452276 46.7627182,11.3189519 45.8400888,10.8462027 L51.6776695,5.00862197 C52.0681938,4.61809768 52.7013588,4.61809768 53.0918831,5.00862197 L62.991378,14.9081169 C63.3819023,15.2986412 63.3819023,15.9318062 62.991378,16.3223305 L57.1537973,22.1599112 Z M22.1599112,57.1537973 L16.3223305,62.991378 C15.9318062,63.3819023 15.2986412,63.3819023 14.9081169,62.991378 L5.00862197,53.0918831 C4.61809768,52.7013588 4.61809768,52.0681938 5.00862197,51.6776695 L10.8462027,45.8400888 C11.3189519,46.7627182 11.8452276,47.6533882 12.4209314,48.5080008 L8.54415588,52.3847763 L15.6152237,59.4558441 L19.4919992,55.5790686 C20.3466118,56.1547724 21.2372818,56.6810481 22.1599112,57.1537973 Z" id="Combined-Shape"></path>
                        <path d="M10.8462027,22.1599112 L5.00862197,16.3223305 C4.61809768,15.9318062 4.61809768,15.2986412 5.00862197,14.9081169 L14.9081169,5.00862197 C15.2986412,4.61809768 15.9318062,4.61809768 16.3223305,5.00862197 L22.1599112,10.8462027 C21.2372818,11.3189519 20.3466118,11.8452276 19.4919992,12.4209314 L15.6152237,8.54415588 L8.54415588,15.6152237 L12.4209314,19.4919992 C11.8452276,20.3466118 11.3189519,21.2372818 10.8462027,22.1599112 Z M45.8400888,57.1537973 C46.7627182,56.6810481 47.6533882,56.1547724 48.5080008,55.5790686 L52.3847763,59.4558441 L59.4558441,52.3847763 L55.5790686,48.5080008 C56.1547724,47.6533882 56.6810481,46.7627182 57.1537973,45.8400888 L62.991378,51.6776695 C63.3819023,52.0681938 63.3819023,52.7013588 62.991378,53.0918831 L53.0918831,62.991378 C52.7013588,63.3819023 52.0681938,63.3819023 51.6776695,62.991378 L45.8400888,57.1537973 Z" id="Combined-Shape"></path>
                    </g>
                    <path d="M83,13 L3,13 L3,75 L11,75 L11,78 L2,78 C0.8954305,78 1.3527075e-16,77.1045695 0,76 L0,2 C-1.3527075e-16,0.8954305 0.8954305,2.02906125e-16 2,0 L84,0 C85.1045695,-2.02906125e-16 86,0.8954305 86,2 L86,76 C86,77.1045695 85.1045695,78 84,78 L75,78 L75,75 L83,75 L83,13 Z M83,10 L83,3 L3,3 L3,10 L83,10 Z M18,3 L21,3 L21,10 L18,10 L18,3 Z M6,5 L9,5 L9,8 L6,8 L6,5 Z M12,5 L15,5 L15,8 L12,8 L12,5 Z M71,5 L74,5 L74,8 L71,8 L71,5 Z M77,5 L80,5 L80,8 L77,8 L77,5 Z M14,20 L10,20 L10,24 L7,24 L7,18 C7,17.4477153 7.44771525,17 8,17 L14,17 L14,20 Z M72,20 L72,17 L78,17 C78.5522847,17 79,17.4477153 79,18 L79,24 L76,24 L76,20 L72,20 Z" id="Combined-Shape" opacity="0.921595982"></path>
                    <path d="M55.9621104,53 C55.4514855,59.7124477 49.8432298,65 43,65 C39.7882243,65 36.8484843,63.8352765 34.5801161,61.9051653 L31.7446456,64.7406358 C34.7427763,67.391256 38.683517,69 43,69 C52.053146,69 59.4534586,61.9233795 59.9710764,53 L55.9621104,53 Z M55.8471036,50 L59.8835937,50 C58.9706143,42.2096381 52.7903619,36.0293857 45,35.1164063 L45,39.1528964 C50.5782404,40.0142398 54.9857602,44.4217596 55.8471036,50 Z M42,39.0378896 L42,35.0289236 C33.0766205,35.5465414 26,42.946854 26,52 C26,55.9919127 27.3759065,59.6624651 29.6793514,62.5632893 L32.5323005,59.7103401 C30.9407219,57.5531876 30,54.8864525 30,52 C30,45.1567702 35.2875523,39.5485145 42,39.0378896 Z M43,72 C31.954305,72 23,63.045695 23,52 C23,40.954305 31.954305,32 43,32 C54.045695,32 63,40.954305 63,52 C63,63.045695 54.045695,72 43,72 Z M43,62 C48.5228475,62 53,57.5228475 53,52 C53,46.4771525 48.5228475,42 43,42 C37.4771525,42 33,46.4771525 33,52 C33,57.5228475 37.4771525,62 43,62 Z M43,46 L43,49 C41.3431458,49 40,50.3431458 40,52 C40,53.6568542 41.3431458,55 43,55 C44.6568542,55 46,53.6568542 46,52 L49,52 C49,55.3137085 46.3137085,58 43,58 C39.6862915,58 37,55.3137085 37,52 C37,48.6862915 39.6862915,46 43,46 Z" id="Combined-Shape"></path>
                    <path d="M19.9819008,36.0529686 L22.1419827,38.2130505 C20.4040362,40.837078 19.1480067,43.8081267 18.5000906,47 L15.4451419,47 C16.1681661,42.9890387 17.7454692,39.2749781 19.9819008,36.0529686 Z M27.0529686,28.9819008 C30.2749781,26.7454692 33.9890387,25.1681661 38,24.4451419 L38,27.5000906 C34.8081267,28.1480067 31.837078,29.4040362 29.2130505,31.1419827 L27.0529686,28.9819008 Z M66.0180992,67.9470314 L63.8580173,65.7869495 C65.5959638,63.162922 66.8519933,60.1918733 67.4999094,57 L70.5548581,57 C69.8318339,61.0109613 68.2545308,64.7250219 66.0180992,67.9470314 Z M58.9470314,75.0180992 C55.7250219,77.2545308 52.0109613,78.8318339 48,79.5548581 L48,76.4999094 C51.1918733,75.8519933 54.162922,74.5959638 56.7869495,72.8580173 L58.9470314,75.0180992 Z M22.1419827,65.7869495 L19.9819008,67.9470314 C17.7454692,64.7250219 16.1681661,61.0109613 15.4451419,57 L18.5000906,57 C19.1480067,60.1918733 20.4040362,63.162922 22.1419827,65.7869495 Z M29.2130505,72.8580173 C31.837078,74.5959638 34.8081267,75.8519933 38,76.4999094 L38,79.5548581 C33.9890387,78.8318339 30.2749781,77.2545308 27.0529686,75.0180992 L29.2130505,72.8580173 Z M63.8580173,38.2130505 L66.0180992,36.0529686 C68.2545308,39.2749781 69.8318339,42.9890387 70.5548581,47 L67.4999094,47 C66.8519933,43.8081267 65.5959638,40.837078 63.8580173,38.2130505 Z M56.7869495,31.1419827 C54.162922,29.4040362 51.1918733,28.1480067 48,27.5000906 L48,24.4451419 C52.0109613,25.1681661 55.7250219,26.7454692 58.9470314,28.9819008 L56.7869495,31.1419827 Z" id="Combined-Shape"></path>
                </g>
            </g>
        </g>
    </g>
</svg>