<svg width="128px" height="128px" viewBox="0 0 128 128" version="1.1" xmlns="http://www.w3.org/2000/svg" xmlns:xlink="http://www.w3.org/1999/xlink">
    <g id="Symbols" stroke="none" stroke-width="1" fill="none" fill-rule="evenodd">
        <g id="ic_кecognition_green_128px" fill="#56BF98" fill-rule="nonzero">
            <g id="Group-7">
                <path d="M52,60 C52,53.372583 57.372583,48 64,48 C70.627417,48 76,53.372583 76,60 L76,74 L76,78 L80,78 L80,81 L74,81 C73.4477153,81 73,80.5522847 73,80 L73,74 L73,60 C73,55.0294373 68.9705627,51 64,51 C59.0294373,51 55,55.0294373 55,60 L55,74 L55,80 C55,80.5522847 54.5522847,81 54,81 L48,81 L48,78 L52,78 L52,74 L52,60 Z M64,87 L55,87 L55,84 L64,84 L68,84 L68,80 L68,61 C68,58.790861 66.209139,57 64,57 C61.790861,57 60,58.790861 60,61 L60,71 L57,71 L57,61 C57,57.1340068 60.1340068,54 64,54 C67.8659932,54 71,57.1340068 71,61 L71,80 L71,86 C71,86.5522847 70.5522847,87 70,87 L64,87 Z M80,60 C80,51.163444 72.836556,44 64,44 C55.163444,44 48,51.163444 48,60 L48,67 L48,73 C48,73.5522847 47.5522847,74 47,74 L41,74 L41,71 L45,71 L45,67 L45,60 C45,49.5065898 53.5065898,41 64,41 C74.4934102,41 83,49.5065898 83,60 L83,67 L83,71 L87,71 L87,74 L81,74 C80.4477153,74 80,73.5522847 80,73 L80,67 L80,60 Z M57,74 L60,74 L60,77 L57,77 L57,74 Z M83,78 L86,78 L86,81 L83,81 L83,78 Z M43,78 L46,78 L46,81 L43,81 L43,78 Z M63,60 L66,60 L66,81 L63,81 L63,60 Z M35,21 L93,21 C100.731986,21 107,27.2680135 107,35 L107,93 C107,100.731986 100.731986,107 93,107 L35,107 C27.2680135,107 21,100.731986 21,93 L21,35 C21,27.2680135 27.2680135,21 35,21 Z M35,24 C28.9248678,24 24,28.9248678 24,35 L24,93 C24,99.0751322 28.9248678,104 35,104 L93,104 C99.0751322,104 104,99.0751322 104,93 L104,35 C104,28.9248678 99.0751322,24 93,24 L35,24 Z M42,94 L36,94 C35.4477153,94 35,93.5522847 35,93 L35,87 L35,84 L38,84 L38,87 L38,91 L42,91 L59,91 L59,94 L42,94 Z M63,91 L66,91 L66,94 L63,94 L63,91 Z M87,33 L93,33 C93.5522847,33 94,33.4477153 94,34 L94,40 L94,43 L91,43 L91,40 L91,36 L87,36 L70,36 L70,33 L87,33 Z M66,36 L63,36 L63,33 L66,33 L66,36 Z M45,36 L38,36 L38,43 L35,43 L35,34 C35,33.4477153 35.4477153,33 36,33 L45,33 L45,36 Z M84,91 L91,91 L91,84 L94,84 L94,93 C94,93.5522847 93.5522847,94 93,94 L84,94 L84,91 Z" id="Combined-Shape"></path>
            </g>
        </g>
    </g>
</svg>