<svg width="128px" height="128px" viewBox="0 0 128 128" version="1.1" xmlns="http://www.w3.org/2000/svg" xmlns:xlink="http://www.w3.org/1999/xlink">
    <g id="Symbols" stroke="none" stroke-width="1" fill="none" fill-rule="evenodd">
        <g id="ic_marketing_green_128px" fill="#56BF98" fill-rule="nonzero">
            <g id="Group-6">
                <path d="M47,103 L47,99 C47,98.4477153 47.4477153,98 48,98 L52,98 L52,87 L23,87 C21.8954305,87 21,86.1045695 21,85 L21,27 C21,24.790861 22.790861,23 25,23 L103,23 C105.209139,23 107,24.790861 107,27 L107,85 C107,86.1045695 106.104569,87 105,87 L76,87 L76,98 L80,98 C80.5522847,98 81,98.4477153 81,99 L81,103 L84,103 L84,106 L44,106 L44,103 L47,103 Z M78,103 L78,101 L50,101 L50,103 L78,103 Z M73,87 L55,87 L55,98 L73,98 L73,87 Z M31,70 L34.8766094,70 L48,57.0097487 L48,57 L56.746893,57 L67,47.0073194 L67,47 L80.7279221,47 L94.7279221,33 L90,33 L90,30 L99,30 C99.5522847,30 100,30.4477153 100,31 L100,40 L97,40 L97,34.9705627 L83,48.9705627 L83,62 L80,62 L80,50 L70,50 L70,70 L104,70 L104,73 L24,73 L24,70 L28,70 L28,31 C28,30.4477153 28.4477153,30 29,30 L83,30 L83,33 L31,33 L31,70 Z M39.1473283,70 L48,70 L48,61.232084 L39.1473283,70 Z M51,70 L67,70 L67,51.196079 L60,58.0182807 L60,60 L60,66 L57,66 L57,60 L51,60 L51,70 Z M24,26 L24,84 L104,84 L104,26 L24,26 Z M64,82 C61.790861,82 60,80.209139 60,78 C60,75.790861 61.790861,74 64,74 C66.209139,74 68,75.790861 68,78 C68,80.209139 66.209139,82 64,82 Z M64,79 C64.5522847,79 65,78.5522847 65,78 C65,77.4477153 64.5522847,77 64,77 C63.4477153,77 63,77.4477153 63,78 C63,78.5522847 63.4477153,79 64,79 Z M40,39 L37,39 L37,42 L34,42 L34,38 C34,36.8954305 34.8954305,36 36,36 L40,36 L40,39 Z M54,53 L54,47 L51,47 L51,44 L55,44 C56.1045695,44 57,44.8954305 57,46 L57,53 L54,53 Z M48,50 L48,53 L34,53 L34,50 L48,50 Z M42,44 L42,47 L39,47 L39,44 L42,44 Z M48,44 L48,47 L45,47 L45,44 L48,44 Z" id="Combined-Shape"></path>
            </g>
        </g>
    </g>
</svg>