<?xml version="1.0" encoding="utf-8"?>
<!-- Generator: Adobe Illustrator 21.0.0, SVG Export Plug-In . SVG Version: 6.00 Build 0)  -->
<svg version="1.1" id="Logo_1_" xmlns="http://www.w3.org/2000/svg" xmlns:xlink="http://www.w3.org/1999/xlink" x="0px" y="0px"
	 width="1072.5px" height="1072.5px" viewBox="0 0 1072.5 1072.5" style="enable-background:new 0 0 1072.5 1072.5;"
	 xml:space="preserve">
<style type="text/css">
	.st0{fill:#FFFFFF;}
</style>
<g id="Logo">
	<g>
		<path class="st0" d="M411.6,590.1c-23.3,0-42.4,8-57.3,24.1c-14.9,16.1-22.4,35.8-22.4,59.4c0,23.3,7.6,43,22.8,59.2
			c15.2,16.2,34.4,24.3,57.7,24.3c23.3,0,42.4-8,57.3-24.1c14.9-16.1,22.4-35.8,22.4-59.4c0-23.3-7.6-43-22.8-59.2
			C454.1,598.2,434.9,590.1,411.6,590.1z"/>
	</g>
	<g>
		<path class="st0" d="M937.4,754.4h88.9c8.1-18.1,15.1-36.7,21.2-55.8H937.4V754.4z"/>
	</g>
	<g>
		<path class="st0" d="M755.3,603.2c-8.1-6.4-19.3-9.7-33.8-9.7h-58v76.2h59.2c14.2,0,25.2-3.5,33-10.4c7.8-7,11.8-16.2,11.8-27.9
			C767.5,619.1,763.4,609.6,755.3,603.2z"/>
	</g>
	<g>
		<path class="st0" d="M937.4,646.6h123.7c3.7-17.7,6.5-35.6,8.4-53.9H937.4V646.6z"/>
	</g>
	<g>
		<path class="st0" d="M909.5,347.6c-15,0-27.3,5.2-37,15.5c-9.6,10.4-14.4,23.1-14.4,38.3c0,15,4.9,27.7,14.7,38.2
			c9.8,10.4,22.2,15.7,37.2,15.7c15,0,27.3-5.2,37-15.5c9.6-10.4,14.4-23.1,14.4-38.3c0-15-4.9-27.7-14.7-38.2
			C936.9,352.8,924.5,347.6,909.5,347.6z"/>
	</g>
	<g>
		<path class="st0" d="M746.5,392.3c5.1-4.5,7.6-10.5,7.6-18c0-8-2.6-14.1-7.8-18.2c-5.2-4.2-12.5-6.2-21.8-6.2H687V399h38.2
			C734.3,399,741.4,396.8,746.5,392.3z"/>
	</g>
	<g>
		<path class="st0" d="M536.2,0C240.1,0,0,240.1,0,536.2c0,25.2,1.7,50.1,5.1,74.4c6.2-12.5,14.5-24,24.9-34.6
			c26-26.6,59.2-39.8,99.4-39.8c23,0,42.4,3.7,58,11.2c15.7,7.5,30.6,18.1,44.8,32.1l-34.9,40.2c-11.4-10.4-22.1-17.9-32.1-22.6
			c-10-4.7-22.1-7-36.2-7c-22.3,0-40.7,8-55.2,24.1C59.3,630.3,52,650.1,52,673.6c0,23.3,7.3,43,21.8,59.2
			C88.4,748.9,106.8,757,129,757c14.2,0,26.4-2.5,36.8-7.6c10.4-5.1,21.4-12.9,33-23.5l37.2,39.8c-14.4,15.4-30,26.8-46.8,34.1
			c-16.8,7.3-37.5,11-62,11c-21.5,0-41-4-58.6-12.1c91.9,163.4,266.9,273.7,467.7,273.7c197.7,0,370.4-107,463.4-266.2H879.4V540.8
			h193.1c0-1.5,0-3,0-4.6C1072.5,240.1,832.4,0,536.2,0z M649.3,315.8h78.3c21.7,0,38.3,5.8,49.9,17.4c9.8,9.8,14.7,23,14.7,39.6
			c0,26.3-12.2,44-36.7,53.1l41.9,61.2h-44.1l-37.2-54.8H687v54.8h-37.7V315.8z M300.3,315.8h129.2v33.5h-91.8v34.8h80.8v33.5h-80.8
			v36h93v33.5H300.3V315.8z M259.2,487.1h-32.1l-83-108.9v108.9H107V315.8h34.8L222,421.3V315.8h37.2V487.1z M512.7,770.9
			c-26.9,26.7-60.6,40-101.1,40c-40.5,0-74-13.3-100.7-39.8c-26.7-26.6-40-59-40-97.5c0-38.2,13.5-70.6,40.4-97.3
			c26.9-26.7,60.6-40,101.1-40c40.5,0,74,13.3,100.7,39.8c26.7,26.6,40,59.1,40,97.5C553.1,711.8,539.7,744.2,512.7,770.9z
			 M535.8,489.8c-23.3,0-41.5-6.5-54.6-19.5c-13.1-13-19.6-31.9-19.6-56.7v-97.9h37.7v96.9c0,13.7,3.2,24.2,9.7,31.4
			c6.4,7.3,15.5,10.9,27.3,10.9c11.7,0,20.8-3.5,27.3-10.5c6.4-7,9.7-17.2,9.7-30.6v-98.1h37.7v96.7c0,25.5-6.7,44.7-19.9,57.8
			C577.6,483.3,559.3,489.8,535.8,489.8z M766.3,806.3l-57.7-85h-45.1v85h-58.4V540.8h121.4c33.6,0,59.4,9,77.4,26.9
			c15.2,15.2,22.8,35.7,22.8,61.5c0,40.7-19,68.2-56.9,82.3l64.9,94.8H766.3z M974.7,464.2c-17.4,17.2-39.1,25.8-65.2,25.8
			c-26.1,0-47.8-8.6-65-25.7c-17.2-17.1-25.8-38.1-25.8-62.9c0-24.6,8.7-45.6,26.1-62.8c17.4-17.2,39.1-25.8,65.2-25.8
			c26.1,0,47.8,8.6,65,25.7c17.2,17.1,25.8,38.1,25.8,62.9C1000.8,426.1,992.1,447,974.7,464.2z"/>
	</g>
</g>
</svg>
