<svg version="1.0" xmlns="http://www.w3.org/2000/svg" width="297.000000pt" height="245.000000pt" viewBox="0 0 297.000000 245.000000" preserveAspectRatio="xMidYMid meet">
					<g transform="translate(0.000000,245.000000) scale(0.100000,-0.100000)" fill="#000000" stroke="none">
						<path fill="#5e5e5e" d="M530 2434 c0 -8 44 -72 98 -141 53 -69 108 -140 122 -158 14 -18 39 -50 55 -71 203 -262 245 -317 242 -321 -3 -2 -51 3 -108 11 -57 8 -174 25 -259 36 -85 12 -218 30 -295 40 -402 56 -385 55 -385 37 0 -8 118 -81 287 -177 159 -90 432 -245 608 -345 176 -100 350 -199 387 -219 37 -21 70 -42 73 -46 3 -5 -8 -37 -25 -71 -29 -57 -317 -569 -436 -777 -30 -51 -54 -96 -54 -101 0 -5 28 -16 63 -25 34 -10 76 -22 92 -27 133 -40 276 -79 294 -79 21 0 21 1 21 227 l0 227 67 179 67 180 170 -7 171 -7 319 319 319 320 23 173 c13 96 26 179 28 185 2 6 17 14 33 18 15 4 100 29 188 56 88 27 186 56 218 65 31 9 57 22 57 29 0 7 -26 23 -57 36 -32 13 -98 42 -148 65 -258 120 -243 115 -351 115 l-99 0 -185 -206 c-102 -113 -195 -214 -207 -226 l-22 -20 -138 74 c-76 41 -183 99 -238 128 -55 29 -122 65 -150 80 -415 224 -823 440 -833 440 -7 0 -12 -7 -12 -16z"/>
					</g>
				</svg>